<svg version="1.1" id="Layer_1" xmlns="http://www.w3.org/2000/svg" xmlns:xlink="http://www.w3.org/1999/xlink" x="0px" y="0px"
	 width="100%" viewBox="0 0 413 120" enable-background="new 0 0 413 120" xml:space="preserve">
<path fill="#000000" opacity="1.000000" stroke="none" 
	d="
M318.000000,121.000000 
	C213.333344,121.000000 109.166672,120.978394 5.000144,121.095459 
	C1.576174,121.099304 0.886855,120.426025 0.901250,116.999626 
	C1.058790,79.500290 1.044055,41.999897 0.915933,4.500339 
	C0.905740,1.516867 1.517972,0.916741 4.500004,0.918805 
	C139.833252,1.012448 275.166595,1.012442 410.499847,0.918838 
	C413.481476,0.916776 414.094269,1.516308 414.084106,4.500184 
	C413.956116,42.166412 413.956177,79.833366 414.084076,117.499603 
	C414.094238,120.482864 413.484375,121.098343 410.499725,121.084869 
	C379.833649,120.946472 349.166718,121.000000 318.000000,121.000000 
z"/>
<path fill="#DB202C" opacity="1.000000" stroke="none" 
	d="
M173.660034,85.735428 
	C173.706070,85.489067 173.910339,85.596840 174.027908,85.536293 
	C176.333694,84.348869 173.566025,80.706627 176.075851,80.261879 
	C179.931717,79.578621 183.960861,80.070915 187.849121,79.063316 
	C189.219833,78.708115 189.861023,79.556480 190.009506,81.025864 
	C190.428696,85.174286 191.004089,89.306931 191.241867,93.504601 
	C189.423172,90.707932 189.550217,87.365013 189.149689,84.296394 
	C188.815765,81.738152 188.173843,81.012817 185.622101,80.936424 
	C176.063217,80.650253 175.730408,80.530586 175.145447,90.324608 
	C174.841782,95.408913 172.427917,96.867683 168.065948,97.004265 
	C159.634476,97.268250 151.176926,96.367920 142.767654,97.937111 
	C138.824722,98.672867 135.911514,97.455566 135.758621,92.597557 
	C135.727661,91.613510 135.087357,90.476654 134.980560,89.304977 
	C134.319031,82.049042 129.624237,79.614059 123.065941,83.142708 
	C121.192375,84.150772 121.483727,86.463036 121.280243,87.942863 
	C120.877182,90.874100 120.171410,93.729729 119.113541,96.437881 
	C117.928131,92.847260 120.141022,89.724068 119.546326,85.959244 
	C121.627525,80.332268 121.627525,80.332268 129.471512,80.637222 
	C126.869797,81.704865 121.512299,77.704269 120.147232,84.819557 
	C119.743095,88.707428 118.441360,92.147652 118.474045,96.173416 
	C118.340401,96.824135 118.227806,97.071648 117.780304,97.557831 
	C112.701820,97.957260 108.064293,99.391754 102.854202,98.944626 
	C102.167969,98.833473 101.900276,98.754158 101.325089,98.391891 
	C99.205177,91.690582 102.414780,85.872025 103.269417,79.777138 
	C103.700188,76.705078 104.261009,73.629456 104.991241,70.207901 
	C105.002724,69.564552 105.006844,69.311287 105.030090,68.686508 
	C105.484772,66.737404 106.240067,65.223297 106.008675,63.172272 
	C106.029037,62.608452 106.043579,62.384491 106.131393,61.834450 
	C107.055901,60.121910 107.026176,58.577091 107.022034,56.704117 
	C107.068665,56.154945 107.102165,55.936165 107.259384,55.408089 
	C107.958633,52.275093 108.885216,49.518360 109.007370,46.272125 
	C109.023216,45.713966 109.034645,45.491005 109.107925,44.939178 
	C110.003929,43.200386 110.049423,41.644577 110.022156,39.735062 
	C110.068954,39.173000 110.102699,38.948772 110.262840,38.406952 
	C110.936836,35.168304 112.005219,32.343285 112.015396,28.970078 
	C112.048965,28.384371 112.073151,28.149988 112.207169,27.578007 
	C113.087845,24.249596 113.823112,21.251806 114.509567,17.603434 
	C115.804764,10.538304 120.419846,10.650676 125.368721,10.951867 
	C129.298523,11.191037 133.277908,11.264443 137.191376,10.917000 
	C140.304306,10.640628 141.247742,11.990833 141.987976,15.076711 
	C143.132263,18.504421 143.886322,21.474806 144.489349,24.822412 
	C144.717987,25.363256 144.799240,25.583300 144.925446,26.151306 
	C145.030792,29.528822 146.056946,32.413860 146.446503,35.730537 
	C146.675827,36.258312 146.763184,36.470943 146.906311,37.023186 
	C147.036362,38.496868 146.917862,39.658283 147.586426,41.037506 
	C147.795303,41.565186 147.857407,41.784214 147.949707,42.343189 
	C147.704819,45.685673 149.157974,48.428719 149.422119,51.679558 
	C149.649323,52.194214 149.738800,52.400288 149.891434,52.936752 
	C150.107971,54.808636 149.747955,56.411545 150.647980,58.187103 
	C150.839996,58.713913 150.890488,58.934280 150.963943,59.494247 
	C151.159576,62.808765 152.012268,65.674911 152.539093,68.929688 
	C152.758499,69.462181 152.830612,69.681725 152.939087,70.246506 
	C152.754272,73.657631 154.077896,76.477486 154.596588,79.738297 
	C154.944321,80.204796 155.083115,80.391823 155.316101,80.915535 
	C155.595718,82.875481 155.458527,84.521255 155.832596,86.477394 
	C155.935440,87.049690 155.956894,87.281631 155.986359,87.862396 
	C156.004547,95.499977 156.004547,95.499977 147.576935,95.503410 
	C153.176285,95.496712 158.775681,95.304710 164.374985,95.530785 
	C164.004974,95.498558 163.634903,95.503586 163.264908,95.499359 
	C154.792862,95.402649 156.146027,96.483490 155.982513,87.671135 
	C155.946182,87.090981 155.920334,86.859550 155.831436,86.284180 
	C155.881699,84.308243 156.359665,82.730682 156.532501,80.752884 
	C156.647690,80.181770 156.720963,79.959114 156.983459,79.439407 
	C158.334274,76.285103 158.482986,73.219818 159.016754,69.871552 
	C159.062057,69.273132 159.093597,69.033951 159.252625,68.454102 
	C160.648636,63.394398 161.197403,58.544121 162.006348,53.376339 
	C162.024551,52.771694 162.037155,52.530983 162.118225,51.937202 
	C163.140411,48.673046 163.678772,45.677467 164.017120,42.288410 
	C164.054947,41.706341 164.082077,41.474880 164.235474,40.918377 
	C165.102737,39.580425 164.977249,38.400749 165.015610,36.903740 
	C165.052261,36.326668 165.078384,36.096436 165.217834,35.537125 
	C166.192474,32.308250 166.505463,29.305300 167.011566,25.983570 
	C167.047104,25.395319 167.071365,25.160055 167.204834,24.585938 
	C168.089462,21.254906 168.820648,18.254053 169.509537,14.603552 
	C170.881927,11.418440 172.793564,10.834016 175.460098,10.939133 
	C180.724167,11.146646 186.008133,11.151406 191.272202,10.944021 
	C194.380783,10.821556 195.724319,12.026632 196.028519,15.034596 
	C196.288239,17.602741 196.895462,20.135746 197.988205,23.066887 
	C199.183395,24.476313 198.872208,25.718344 199.591385,27.050568 
	C199.799515,27.580181 199.860611,27.800381 199.951080,28.362274 
	C199.744080,31.726082 201.126892,34.500210 201.463623,37.768269 
	C201.691132,38.292477 201.775986,38.504818 201.913055,39.056168 
	C202.033203,40.531181 201.922455,41.693157 202.601379,43.073723 
	C202.807465,43.608521 202.866608,43.831341 202.953690,44.399612 
	C202.820129,47.804966 204.072479,50.639774 204.543854,53.941254 
	C204.763855,54.484287 204.835022,54.708679 204.941345,55.285530 
	C204.838287,58.769501 206.026810,61.687019 206.593704,65.058800 
	C206.805252,65.624046 206.865860,65.859642 206.954178,66.460892 
	C207.148743,71.781311 208.976807,76.488480 209.044678,82.172333 
	C208.328262,86.380180 211.417770,90.727745 208.867889,93.058678 
	C206.010361,95.670845 201.260300,93.520508 197.376938,94.019203 
	C193.905426,94.465004 192.561829,92.352036 192.110825,89.554184 
	C191.800110,87.626678 191.023285,85.486580 191.238541,83.822029 
	C192.115921,77.037041 187.845123,77.747307 183.668762,78.006233 
	C181.059570,78.167992 178.550568,78.924751 175.922226,79.164467 
	C172.335297,79.491608 174.718613,82.866165 173.741241,85.092575 
	C173.721039,85.740219 173.733749,86.004463 173.688126,86.278252 
	C173.638306,86.577141 173.570877,86.715706 173.571671,86.685905 
	C173.575333,86.545624 173.657593,86.321083 173.660034,85.735428 
z"/>
<path fill="#DB202C" opacity="1.000000" stroke="none" 
	d="
M398.663513,80.773483 
	C398.833344,81.000069 398.975586,81.434441 399.009460,81.660461 
	C399.160980,82.068741 399.278656,82.250999 399.375458,82.757790 
	C398.661224,85.840965 400.510590,88.029320 401.137451,90.818802 
	C401.377441,91.294716 401.502197,91.469505 401.895905,91.821503 
	C402.759766,93.114479 403.354614,94.230255 403.891418,95.673508 
	C403.685791,96.246422 403.538269,96.491859 403.138123,96.389862 
	C400.579803,98.471809 402.890839,100.633263 403.443665,102.778198 
	C404.699249,107.649750 404.424927,108.217545 399.646729,107.997345 
	C395.542358,107.808182 391.576477,106.287193 387.544098,107.014374 
	C387.779022,107.660309 387.876526,108.005936 387.452026,108.218246 
	C382.438904,106.166588 383.597137,101.431450 382.256683,98.063522 
	C379.864136,92.052139 378.505310,85.629349 376.492767,78.605530 
	C372.106812,87.327904 371.084473,96.587944 366.326324,104.306427 
	C362.867218,102.465889 359.150757,104.695610 356.704224,102.762077 
	C359.137634,104.212837 362.420959,103.230515 365.847809,103.728027 
	C366.812836,105.304993 365.819916,105.871452 364.867737,105.769775 
	C360.163727,105.267448 355.443085,104.782570 350.796173,103.924164 
	C346.549469,103.139671 346.398529,100.216812 347.643311,96.739990 
	C352.205688,83.996696 356.632660,71.204254 361.294525,58.497791 
	C362.296448,55.766918 362.390900,53.461533 361.395477,50.666111 
	C356.814026,37.800491 352.500183,24.839573 347.659149,10.648892 
	C349.071960,12.488654 349.694031,13.298717 350.733032,14.651741 
	C350.602875,12.213970 350.790619,10.682792 353.651123,10.902987 
	C358.980194,11.313214 364.354004,11.172260 369.709473,11.190986 
	C371.377594,11.196817 370.776520,12.491591 371.093353,13.280416 
	C373.509003,19.294073 374.417084,25.837975 377.978149,32.125061 
	C380.043091,26.174126 382.278381,20.616806 383.835571,14.875565 
	C384.628235,11.953211 386.125519,11.093464 388.722839,11.089610 
	C393.539337,11.082464 398.355835,11.087563 403.151917,11.087563 
	C403.640717,14.581120 400.681091,17.226345 401.567963,20.776482 
	C402.052673,20.757462 402.219727,20.557495 402.610046,20.678301 
	C401.696564,27.503984 398.160309,33.223801 396.425110,39.838562 
	C395.945679,40.273716 395.776978,40.504883 395.387482,40.367950 
	C391.998718,40.554871 392.155243,45.030437 392.289642,45.162773 
	C395.801544,48.621029 391.690186,51.500370 391.438843,54.813934 
	C390.941833,55.176655 390.769379,55.310707 390.405334,55.715370 
	C390.532288,58.985878 391.769653,61.706455 392.976196,64.772217 
	C393.300354,65.218758 393.447327,65.383339 393.854370,65.752708 
	C395.957916,69.847656 397.487823,73.838310 398.063599,78.549301 
	C398.037750,79.530411 398.125092,80.072784 398.663513,80.773483 
z"/>
<path fill="#DB202C" opacity="1.000000" stroke="none" 
	d="
M93.306236,60.707863 
	C92.781723,62.894993 90.928207,61.865765 89.427773,61.948765 
	C85.815559,62.148579 82.235382,62.090065 78.618454,62.856495 
	C76.391869,63.328312 75.955292,64.119095 75.982986,66.038933 
	C76.050148,70.694565 76.008698,75.351814 76.003838,80.008408 
	C76.002213,81.562889 75.951675,82.967606 78.227829,83.009567 
	C85.755043,83.148331 93.230217,80.532997 100.821594,82.707420 
	C102.142593,83.085800 101.831337,81.385719 101.991508,80.498390 
	C105.613914,60.430557 108.608185,40.251259 112.780640,20.278482 
	C113.341209,17.595119 113.339874,14.786561 114.427773,12.040450 
	C115.466087,13.444770 114.796829,14.917645 114.952866,16.659561 
	C114.921890,17.043291 114.991676,16.973440 115.026093,16.938046 
	C114.413086,20.392391 113.446518,23.832609 113.183945,27.758656 
	C112.939461,28.097303 113.000000,27.999985 113.030258,27.951317 
	C112.416313,31.392998 111.444199,34.832458 111.183907,38.758812 
	C110.939461,39.097305 110.999992,38.999832 111.030243,38.951088 
	C109.895988,40.639149 110.829697,42.617523 110.181129,44.769585 
	C109.939491,45.097626 109.999985,45.000130 110.030243,44.951389 
	C109.416313,48.392998 108.444199,51.832458 108.183907,55.758812 
	C107.939461,56.097305 107.999992,55.999832 108.030243,55.951088 
	C106.895988,57.639149 107.829697,59.617523 107.181129,61.769585 
	C106.939491,62.097626 107.000000,61.999989 107.030243,61.951164 
	C105.895996,63.639149 106.829689,65.617516 106.181129,67.769585 
	C105.939491,68.097626 105.999947,68.000114 106.030197,67.951370 
	C104.493317,77.728409 102.038376,87.419067 101.814682,97.755081 
	C102.059952,98.098183 101.980698,98.019257 101.941048,97.979813 
	C107.139984,99.778198 112.214554,96.616592 117.767578,97.201141 
	C118.115593,96.971039 118.036903,97.026642 117.997574,97.054482 
	C118.140823,96.837051 118.323395,96.591782 118.787788,96.708351 
	C119.069611,97.070190 119.004364,96.996086 118.972092,96.958748 
	C117.338951,101.027847 113.113815,99.634407 110.686134,99.708138 
	C97.497055,100.108772 84.461472,102.030945 71.368919,103.223289 
	C67.224609,103.600716 62.813965,103.164177 58.758430,104.885361 
	C58.028412,105.195190 56.772179,105.344360 56.149052,103.678993 
	C66.040680,102.581474 75.826630,101.495689 85.531662,99.979492 
	C87.528053,99.511780 89.605415,99.481140 91.447525,99.501877 
	C89.832626,99.644905 87.955864,99.220261 85.800308,99.669403 
	C76.973282,100.388252 68.465523,101.157013 59.967213,102.018974 
	C57.046864,102.315186 55.914494,101.467804 55.929295,98.243378 
	C56.055294,70.790306 56.016159,43.336399 55.983276,15.882798 
	C55.979156,12.446414 56.783310,10.735816 60.948784,10.877079 
	C71.751434,11.243428 82.589211,11.328282 93.383369,10.853147 
	C98.330322,10.635392 99.246567,12.689466 99.016708,16.712772 
	C98.912476,18.537260 98.992218,20.372257 98.867355,23.056507 
	C97.498985,25.519712 95.707130,24.978270 94.124046,24.970146 
	C88.980965,24.943748 83.854416,25.175217 78.720062,25.451965 
	C75.828957,25.607798 74.436256,26.645590 74.490074,29.624958 
	C74.559021,33.441334 74.603767,37.264183 74.474495,41.077599 
	C74.369278,44.181358 75.829445,45.057335 78.715553,45.047310 
	C83.518227,45.030617 88.335487,44.658325 93.465393,45.488655 
	C93.973228,45.883698 94.145424,46.073120 94.526901,46.575279 
	C95.870338,60.500229 95.870338,60.500244 82.754189,60.499958 
	C81.930489,60.499943 81.106789,60.500706 80.283112,60.504181 
	C84.421448,60.453236 88.560570,60.577290 93.306236,60.707863 
z"/>
<path fill="#DB202C" opacity="1.000000" stroke="none" 
	d="
M234.728287,94.367798 
	C236.319809,91.916534 234.932388,89.081398 234.947189,86.396683 
	C235.048340,68.054863 234.728455,49.705719 235.166901,31.373827 
	C235.297882,25.896507 234.721085,20.468372 234.983551,15.012454 
	C235.121735,12.140087 235.976959,10.823433 239.321182,10.904511 
	C249.975128,11.162806 260.655792,11.351482 271.292511,10.851826 
	C276.613739,10.601864 277.137207,13.022110 277.092834,17.131182 
	C277.076355,18.657217 275.666077,20.271830 277.953979,22.612419 
	C277.953979,18.316214 277.953979,14.784266 277.953979,11.252319 
	C278.429871,11.262767 278.905762,11.273214 279.381653,11.283661 
	C279.381653,39.083515 279.381653,66.883369 279.381653,94.683220 
	C279.290436,94.686279 279.199249,94.689339 279.108032,94.692398 
	C279.108032,71.423698 279.108032,48.154995 279.108032,24.760967 
	C272.519135,27.048027 266.077972,25.830330 259.743378,25.893072 
	C256.217804,25.927988 254.484833,26.520859 254.940186,30.499367 
	C255.427979,34.761219 253.236191,40.292912 255.775711,43.047897 
	C258.371857,45.864342 263.955719,43.905491 268.218567,43.932480 
	C272.117554,43.957169 274.077881,45.274204 274.033356,49.423824 
	C273.891754,62.626106 275.424683,62.168015 261.879425,62.003620 
	C259.742493,61.977684 257.604980,61.999992 254.999634,61.999992 
	C254.999634,71.213982 254.869476,81.012657 255.058365,90.805183 
	C255.143890,95.239670 253.579651,97.178192 248.987396,97.069626 
	C243.909836,96.949600 238.927322,96.480293 233.785217,94.870453 
	C233.549438,94.550491 233.999924,94.493805 234.225159,94.465469 
	C237.569275,94.484177 240.688110,94.536026 243.342361,94.497078 
	C240.890549,94.314232 237.953491,94.823174 234.728287,94.367798 
z"/>
<path fill="#DB202C" opacity="1.000000" stroke="none" 
	d="
M26.903330,106.531113 
	C21.191624,107.388908 16.278194,107.837662 11.190824,108.302292 
	C11.135302,107.220345 11.009439,105.905602 11.008942,104.590820 
	C10.997750,74.961380 11.060718,45.331654 10.921806,15.702860 
	C10.904950,12.107523 11.638306,10.800414 15.531766,10.902302 
	C26.344101,11.185250 37.168678,11.003263 47.988419,10.997729 
	C49.947239,10.996727 51.198246,10.624613 51.201153,13.908089 
	C51.210972,25.000282 51.516609,25.000010 40.396774,25.000000 
	C36.428272,24.999996 32.459766,25.000000 28.491264,25.000000 
	C28.483240,25.271921 28.475216,25.543844 28.467192,25.815765 
	C35.897137,25.815765 43.327084,25.815765 50.757030,25.815765 
	C50.762451,26.210882 50.767872,26.605997 50.773289,27.001114 
	C45.181782,27.001114 39.586128,27.129076 34.000484,26.948139 
	C31.127085,26.855062 29.729006,27.451279 29.932381,30.738989 
	C30.209337,35.216206 30.202110,39.735447 29.933859,44.213734 
	C29.741095,47.431816 31.003267,48.356346 33.950928,48.018345 
	C37.374981,47.625710 40.802826,48.262745 44.299416,47.460320 
	C46.842350,46.876740 49.090633,48.278347 49.003582,51.594711 
	C48.890190,55.914574 48.842678,60.236168 48.085560,64.572464 
	C46.210888,60.013340 47.869228,55.242073 46.231400,50.358086 
	C40.001312,48.968079 33.978077,49.422348 27.572557,50.032131 
	C27.411983,45.863358 27.557999,41.751842 27.500015,38.665154 
	C27.499994,37.303864 27.477488,37.411110 27.503607,37.966263 
	C27.689417,41.915859 25.909388,47.045258 28.231602,49.439259 
	C29.958265,51.219296 35.287437,49.297306 39.019035,49.515739 
	C41.306667,49.649651 43.643677,49.021141 46.145485,50.252712 
	C47.589466,54.470505 46.824631,58.464314 46.943436,62.414936 
	C47.026386,65.173401 44.801044,65.495132 42.862431,65.807770 
	C39.910637,66.283791 36.906235,65.858482 33.930794,66.056038 
	C30.255987,66.300026 28.314804,67.780045 28.423899,71.963776 
	C28.670034,81.402992 28.521902,90.853615 28.484642,100.299431 
	C28.476898,102.262405 28.824429,104.298576 26.903330,106.531113 
z"/>
<path fill="#DB202C" opacity="1.000000" stroke="none" 
	d="
M299.000000,27.886082 
	C299.000000,46.400856 299.000000,64.436028 299.000000,82.936371 
	C304.986115,82.957649 311.540314,83.241158 318.082001,83.860840 
	C321.589630,84.193115 323.517090,84.885048 323.002045,88.717880 
	C322.980072,88.881531 323.015167,89.052467 322.997284,89.217133 
	C322.678101,92.152596 324.123932,95.507980 322.241821,97.962662 
	C320.023499,100.855881 316.994049,97.949471 314.350952,97.863281 
	C304.299591,97.535469 294.266937,96.648849 284.225037,96.006111 
	C282.311890,95.883659 281.761322,95.585907 281.780426,93.117592 
	C281.988220,66.294426 281.939941,39.468296 281.731781,12.644763 
	C281.715179,10.508956 282.692688,11.060323 283.572876,11.041886 
	C287.237122,10.965132 290.932800,11.289515 294.561462,10.920738 
	C298.270264,10.543820 299.016998,12.415546 299.001801,15.409270 
	C298.981476,19.408241 298.998810,23.407404 299.000000,27.886082 
z"/>
<path fill="#DB202C" opacity="1.000000" stroke="none" 
	d="
M344.000000,83.995438 
	C343.997498,88.821808 343.981140,93.149460 343.997833,97.476974 
	C344.007202,99.914505 343.067261,101.558403 340.427216,100.730911 
	C335.870117,99.302574 331.338684,100.136665 327.000031,100.420677 
	C327.000031,72.561478 327.129181,44.710953 326.877167,16.863873 
	C326.833496,12.034878 328.025391,10.709624 332.868805,10.875017 
	C343.990784,11.254808 344.000000,10.985085 344.000000,22.077969 
	C344.000000,42.550861 344.000000,63.023758 344.000000,83.995438 
z"/>
<path fill="#DB202C" opacity="1.000000" stroke="none" 
	d="
M142.043854,15.008151 
	C142.078964,14.069567 142.078964,13.096155 142.078964,12.122745 
	C142.474625,12.058916 142.870285,11.995088 143.265961,11.931259 
	C147.327515,34.120102 151.389084,56.308945 155.450653,78.497787 
	C155.704956,78.545586 155.959259,78.593384 156.213562,78.641190 
	C157.141891,73.946533 158.144730,69.265182 158.985168,64.554855 
	C162.028931,47.495865 165.014084,30.426435 168.039261,13.364121 
	C168.199524,12.460242 168.309509,11.250147 169.750153,11.927418 
	C169.992538,12.041364 169.910248,12.845885 169.949921,13.687241 
	C169.921860,14.043153 169.991608,13.973318 170.026062,13.937983 
	C169.413086,17.392389 168.446518,20.832603 168.183945,24.758652 
	C167.939468,25.097303 168.000000,24.999985 168.030243,24.951317 
	C167.416306,28.392994 166.444199,31.832455 166.183899,35.758804 
	C165.939468,36.097305 166.000305,36.000282 166.030746,35.951790 
	C164.962219,37.299896 165.788437,38.968868 165.177094,40.782425 
	C164.938797,41.096680 164.999680,40.999680 165.030090,40.951164 
	C164.416290,44.392994 163.444214,47.832455 163.183899,51.758804 
	C162.939468,52.097305 163.000000,51.999985 163.030228,51.951309 
	C162.082901,57.386974 160.795135,62.821915 160.186005,68.750748 
	C159.939514,69.097321 160.000000,68.999985 160.030243,68.951317 
	C159.416290,72.392990 158.444214,75.832458 158.183899,79.758804 
	C157.939468,80.097305 158.000015,79.999840 158.030258,79.951096 
	C156.895996,81.639145 157.829697,83.617523 157.181122,85.769585 
	C156.939484,86.097626 157.002777,86.006996 157.034454,85.961700 
	C156.624237,86.463783 156.290756,87.129204 155.228271,87.133835 
	C154.927704,86.939560 154.994141,87.018570 155.027328,87.058098 
	C153.895981,85.360832 154.829727,83.382462 154.181122,81.230415 
	C153.939484,80.902382 153.999969,80.999855 154.030243,81.048576 
	C153.416275,77.606972 152.444214,74.167519 152.183914,70.241196 
	C151.939468,69.902702 152.000000,70.000000 152.030273,70.048645 
	C151.416275,66.606972 150.444214,63.167526 150.183914,59.241196 
	C149.939468,58.902702 150.000031,59.000149 150.030273,59.048889 
	C148.895996,57.360836 149.829727,55.382465 149.181122,53.230415 
	C148.939484,52.902378 148.999969,52.999855 149.030243,53.048576 
	C148.416275,49.606979 147.444214,46.167526 147.183914,42.241196 
	C146.939468,41.902702 147.000305,41.999718 147.030746,42.048210 
	C145.962219,40.700096 146.788483,39.031120 146.177094,37.217560 
	C145.938812,36.903301 145.999695,37.000286 146.030121,37.048794 
	C145.416290,33.606976 144.444214,30.167524 144.183914,26.241192 
	C143.939468,25.902702 144.000000,26.000002 144.030273,26.048653 
	C143.419769,22.605270 142.435806,19.166271 142.187103,15.239050 
	C141.939468,14.902702 142.008728,14.973325 142.043854,15.008151 
z"/>
<path fill="#DB202C" opacity="1.000000" stroke="none" 
	d="
M47.886036,64.888237 
	C44.932465,68.288086 40.919956,66.815079 37.273766,66.945572 
	C30.126669,67.201332 30.002613,67.184387 30.000601,74.124222 
	C29.998148,82.593040 30.000643,91.061852 29.999809,99.530670 
	C29.999025,107.489662 29.974607,107.399071 22.249447,109.423180 
	C18.922903,110.294792 15.447412,109.612938 12.128185,110.550354 
	C16.401693,108.456718 21.157822,108.561981 25.894958,107.299835 
	C26.105051,106.940163 26.006985,107.003448 25.958279,107.035591 
	C28.002731,105.984467 27.520002,104.073212 27.514622,102.264183 
	C27.484003,91.968658 27.494160,81.673004 27.503090,71.377411 
	C27.507315,66.505730 28.154943,65.778152 33.133961,65.520630 
	C37.581688,65.290565 42.119350,66.096245 46.865585,64.288475 
	C47.443977,64.442627 47.570282,64.569939 47.886036,64.888237 
z"/>
<path fill="#DB202C" opacity="1.000000" stroke="none" 
	d="
M198.041962,23.009260 
	C197.648712,19.180977 197.220825,15.317636 196.792938,11.454294 
	C202.622192,38.420944 208.128479,65.435387 211.374741,92.861259 
	C210.797424,89.672401 210.220093,86.483551 209.286011,83.099281 
	C208.929245,82.903870 208.994736,83.000694 209.027618,83.049011 
	C208.082840,77.613007 206.795151,72.178062 206.186005,66.249245 
	C205.939514,65.902679 206.000000,66.000000 206.030273,66.048645 
	C205.416275,62.606976 204.444214,59.167526 204.183914,55.241196 
	C203.939468,54.902702 204.000000,55.000000 204.030273,55.048653 
	C203.416275,51.606979 202.444214,48.167526 202.183914,44.241196 
	C201.939468,43.902702 202.000305,43.999718 202.030746,44.048210 
	C200.962219,42.700096 201.788483,41.031120 201.177094,39.217560 
	C200.938812,38.903301 200.999695,39.000286 201.030121,39.048794 
	C200.416290,35.606976 199.444214,32.167526 199.183914,28.241192 
	C198.939468,27.902702 199.000305,27.999718 199.030746,28.048210 
	C197.964920,26.696249 198.780823,25.029425 198.181641,23.214602 
	C197.938812,22.903303 198.007309,22.974203 198.041962,23.009260 
z"/>
<path fill="#DB202C" opacity="1.000000" stroke="none" 
	d="
M54.000000,37.016617 
	C54.626762,28.112841 51.543205,19.716402 54.464611,11.296292 
	C54.464611,41.478085 54.464611,71.659882 54.464611,101.841675 
	C54.309742,101.844696 54.154869,101.847710 54.000000,101.850731 
	C54.000000,80.404999 54.000000,58.959270 54.000000,37.016617 
z"/>
<path fill="#DB202C" opacity="1.000000" stroke="none" 
	d="
M98.974892,23.057718 
	C101.421867,19.774693 98.901604,15.720747 100.484138,12.190750 
	C100.659485,12.539435 100.905869,12.813140 100.927567,13.103623 
	C101.890236,25.994162 101.885201,26.141792 89.146118,25.910725 
	C85.292763,25.840828 81.708878,27.384504 77.887283,27.047457 
	C76.695320,26.942331 76.063927,27.609125 76.036606,28.816177 
	C76.025352,29.313526 76.028008,29.811598 76.001656,30.308140 
	C75.275482,43.990490 75.274994,43.990459 88.924751,44.000019 
	C95.984833,44.004967 96.158958,44.010742 95.919479,51.228970 
	C95.814690,54.387409 97.299599,57.855091 94.306038,60.846466 
	C93.913940,60.972157 93.991409,61.020317 94.029556,61.045319 
	C94.008469,56.576904 94.925415,52.110111 94.187912,47.252853 
	C93.940872,46.900768 94.005127,46.995514 94.037277,47.042877 
	C92.651520,44.614819 90.250465,45.631893 88.225670,45.529633 
	C83.597351,45.295883 77.478584,47.367271 74.740875,44.798565 
	C72.028961,42.254082 74.116592,36.065948 74.036995,31.478758 
	C73.915939,24.501598 74.008644,24.689310 80.845512,24.442553 
	C86.743484,24.229679 92.716850,25.510756 98.805450,23.290035 
	C99.069405,22.909756 99.005920,23.008095 98.974892,23.057718 
z"/>
<path fill="#DB202C" opacity="1.000000" stroke="none" 
	d="
M301.000000,52.000000 
	C301.000336,60.648808 301.157440,68.802078 300.925629,76.944283 
	C300.829926,80.305527 301.990234,81.178131 305.173889,81.065979 
	C310.731201,80.870216 316.350677,80.564560 322.570343,82.904770 
	C315.056152,83.229645 308.445831,81.318108 301.752930,81.927795 
	C300.125336,82.076065 300.016693,80.742767 300.016632,79.521843 
	C300.015350,57.113583 300.015717,34.705326 301.000000,12.293320 
	C301.000000,25.362213 301.000000,38.431107 301.000000,52.000000 
z"/>
<path fill="#DB202C" opacity="1.000000" stroke="none" 
	d="
M345.125061,100.641388 
	C344.820374,77.690582 344.915619,54.745899 344.996552,31.801167 
	C345.019318,25.344450 345.000000,18.887585 345.000000,12.206452 
	C346.313965,12.864155 345.978394,13.734033 345.978943,14.410674 
	C346.001129,42.021740 346.004059,69.632835 345.978546,97.243896 
	C345.977478,98.378571 345.679260,99.512970 345.125061,100.641388 
z"/>
<path fill="#DB202C" opacity="1.000000" stroke="none" 
	d="
M233.583221,94.514725 
	C233.389099,93.223114 233.027756,91.922966 233.026047,90.622353 
	C232.992859,65.305725 232.999649,39.989056 233.010681,14.672394 
	C233.011032,13.874958 233.143372,13.077579 233.905609,12.300992 
	C233.905609,39.375824 233.905609,66.450661 233.727524,94.037994 
	C233.549438,94.550491 233.583420,94.505966 233.583221,94.514725 
z"/>
<path fill="#DB202C" opacity="1.000000" stroke="none" 
	d="
M325.113159,84.153259 
	C324.883026,60.074699 324.883026,36.189640 324.883026,12.304585 
	C325.244110,12.304932 325.605164,12.305279 325.966248,12.305626 
	C325.966248,35.893566 325.966248,59.481510 325.899780,83.533844 
	C325.669983,84.114410 325.506653,84.230591 325.113159,84.153259 
z"/>
<path fill="#DB202C" opacity="1.000000" stroke="none" 
	d="
M321.487640,100.776695 
	C308.269318,99.959648 295.354828,98.986603 282.440369,98.013557 
	C295.584686,98.530853 308.832214,97.643173 321.487640,100.776695 
z"/>
<path fill="#DB202C" opacity="1.000000" stroke="none" 
	d="
M324.432617,84.041885 
	C324.883026,83.959755 325.358185,83.979019 325.595764,83.988632 
	C325.833344,89.034828 325.833344,94.071411 325.833344,99.108002 
	C325.354828,99.145866 324.876312,99.183731 324.397766,99.221603 
	C323.545563,94.263153 324.199982,89.148323 324.432617,84.041885 
z"/>
<path fill="#DB202C" opacity="1.000000" stroke="none" 
	d="
M387.493652,107.507111 
	C392.740234,108.755219 398.232208,108.109947 403.047180,110.882881 
	C397.833466,110.171883 392.619751,109.460884 387.168091,108.417397 
	C387.055298,107.956451 387.180481,107.828003 387.493652,107.507111 
z"/>
<path fill="#DB202C" opacity="1.000000" stroke="none" 
	d="
M344.660828,100.547462 
	C345.557465,103.450584 343.373260,102.902100 341.825348,102.988754 
	C337.551361,103.228004 333.555267,101.166763 329.230988,101.799980 
	C334.217499,99.249077 339.250488,103.259758 344.464172,100.932785 
	C344.730591,100.635284 344.683624,100.577103 344.660828,100.547462 
z"/>
<path fill="#DB202C" opacity="1.000000" stroke="none" 
	d="
M195.244141,95.046585 
	C199.965393,95.013809 204.319412,95.013809 208.673431,95.013809 
	C208.669495,95.313202 208.665543,95.612587 208.661606,95.911980 
	C204.077972,95.911980 199.494324,95.914253 194.910721,95.900681 
	C194.777252,95.900291 194.518890,95.681389 194.531311,95.650902 
	C194.614227,95.447243 194.754944,95.267120 195.244141,95.046585 
z"/>
<path fill="#DB202C" opacity="1.000000" stroke="none" 
	d="
M394.066620,65.568985 
	C394.114410,65.957489 393.640533,65.978783 393.403595,65.989403 
	C390.917694,62.874252 390.124878,59.246708 389.864410,55.269913 
	C390.166656,54.999966 390.640503,55.021255 390.877411,55.031929 
	C392.082489,58.421890 393.050659,61.801182 394.066620,65.568985 
z"/>
<path fill="#DB202C" opacity="1.000000" stroke="none" 
	d="
M398.756165,83.461662 
	C398.972137,82.910225 398.986328,82.705467 399.021912,82.193596 
	C400.656097,84.794029 401.789124,87.855560 402.098938,91.600571 
	C402.164886,91.998703 401.665771,91.999992 401.416199,92.000610 
	C399.834045,89.417534 398.719727,86.764229 398.756165,83.461662 
z"/>
<path fill="#DB202C" opacity="1.000000" stroke="none" 
	d="
M395.088470,40.370041 
	C395.166656,39.999859 395.640503,40.021175 395.877441,40.031860 
	C395.565186,42.137569 395.015991,44.232597 394.466766,46.327621 
	C394.099213,46.220448 393.731659,46.113274 393.364105,46.006100 
	C393.912842,44.250809 394.461548,42.495514 395.088470,40.370041 
z"/>
<path fill="#DB202C" opacity="1.000000" stroke="none" 
	d="
M402.985565,20.690910 
	C402.833344,20.999071 402.359497,20.978273 402.122589,20.967854 
	C402.341675,19.650738 402.797668,18.344042 403.450775,16.472511 
	C404.212891,18.215275 404.233948,19.327723 402.985565,20.690910 
z"/>
<path fill="#DB202C" opacity="1.000000" stroke="none" 
	d="
M398.892731,80.698906 
	C398.184265,80.634178 397.692810,80.184479 398.027710,79.143692 
	C398.388245,79.432724 398.670197,79.915230 398.892731,80.698906 
z"/>
<path fill="#DB202C" opacity="1.000000" stroke="none" 
	d="
M402.932861,96.346512 
	C402.885498,96.042427 403.359436,96.021690 403.596375,96.011337 
	C403.746765,96.741577 403.660187,97.482155 403.573608,98.222740 
	C403.375824,97.698692 403.178040,97.174637 402.932861,96.346512 
z"/>
<path fill="#000000" opacity="1.000000" stroke="none" 
	d="
M129.325989,55.674053 
	C130.613571,58.154278 129.356308,60.690014 130.828491,62.787922 
	C131.241196,63.376019 131.065170,64.674606 130.069580,64.798943 
	C128.624969,64.979347 127.078232,64.956032 125.672607,64.616158 
	C124.752533,64.393692 125.047150,63.263226 125.241539,62.459549 
	C126.269150,58.211121 127.140900,53.935825 127.084579,49.292843 
	C130.150467,50.870007 128.462952,53.421158 129.325989,55.674053 
z"/>
<path fill="#000000" opacity="1.000000" stroke="none" 
	d="
M154.956573,87.412552 
	C155.445023,86.656487 155.962326,86.373405 156.772888,86.003365 
	C157.044449,86.748810 157.013428,87.581100 157.002579,88.413658 
	C156.916458,95.024162 158.349976,96.312943 164.893799,94.852234 
	C166.832413,94.419502 168.631851,93.684547 171.507446,94.475067 
	C160.634659,97.916153 150.078659,94.151428 139.172516,97.441963 
	C142.148743,93.875748 145.156860,95.117950 147.784210,95.057808 
	C155.105255,94.890198 155.107742,94.998734 154.956573,87.412552 
z"/>
<path fill="#000000" opacity="1.000000" stroke="none" 
	d="
M180.002014,59.786987 
	C180.795319,55.389275 181.586197,51.405357 182.483307,46.886303 
	C183.374084,51.456886 184.184433,55.569561 184.974808,59.686069 
	C185.507111,62.458412 183.926407,63.741318 181.516571,63.923874 
	C177.588287,64.221466 181.032883,61.244526 180.002014,59.786987 
z"/>
<path fill="#000000" opacity="1.000000" stroke="none" 
	d="
M102.036087,97.655914 
	C99.091751,94.032402 102.025352,89.934891 102.276161,85.935646 
	C102.647247,80.018387 104.261429,74.179092 105.703400,68.104614 
	C105.759636,76.027802 103.664116,83.891327 102.450012,91.881615 
	C102.176857,93.679344 102.157860,95.437996 102.036087,97.655914 
z"/>
<path fill="#000000" opacity="1.000000" stroke="none" 
	d="
M181.590988,38.146801 
	C181.798096,46.541553 179.454819,54.790611 177.167236,63.056423 
	C178.543808,54.834251 179.920364,46.612076 181.590988,38.146801 
z"/>
<path fill="#000000" opacity="1.000000" stroke="none" 
	d="
M126.473740,40.980316 
	C127.718193,48.613861 124.527336,56.043858 122.887123,63.689362 
	C124.010208,56.242130 125.133293,48.794903 126.473740,40.980316 
z"/>
<path fill="#000000" opacity="1.000000" stroke="none" 
	d="
M120.016403,84.612915 
	C119.162567,81.638329 120.632713,80.160202 123.393173,80.067154 
	C127.504616,79.928574 131.624207,80.031219 135.746506,81.002075 
	C132.471878,81.002075 129.194733,81.081680 125.923409,80.977730 
	C123.137016,80.889191 121.280670,82.002022 120.016403,84.612915 
z"/>
<path fill="#000000" opacity="1.000000" stroke="none" 
	d="
M205.963623,66.344627 
	C208.126099,71.120567 208.569412,76.666870 209.036377,82.655289 
	C206.873856,77.879387 206.430695,72.333000 205.963623,66.344627 
z"/>
<path fill="#000000" opacity="1.000000" stroke="none" 
	d="
M160.296539,68.895432 
	C159.830536,63.369774 161.667984,57.921238 162.703430,52.104595 
	C163.169342,57.630222 161.332138,63.078842 160.296539,68.895432 
z"/>
<path fill="#000000" opacity="1.000000" stroke="none" 
	d="
M126.802368,40.732586 
	C126.843719,37.667461 126.843719,34.566654 126.843719,31.465845 
	C128.988953,34.431046 128.809723,37.668907 129.270508,41.144810 
	C128.642563,41.872143 128.009888,41.466377 127.039459,40.812340 
	C126.691093,40.612961 126.761009,40.696903 126.802368,40.732586 
z"/>
<path fill="#000000" opacity="1.000000" stroke="none" 
	d="
M117.700043,96.735413 
	C112.944145,98.355408 107.762291,99.643227 102.119141,98.306526 
	C107.107162,98.293800 112.146774,96.873001 117.700043,96.735413 
z"/>
<path fill="#000000" opacity="1.000000" stroke="none" 
	d="
M178.928467,65.008781 
	C182.077942,65.002678 184.847824,65.002678 187.617722,65.002678 
	C187.621185,65.317078 187.624649,65.631470 187.628113,65.945869 
	C184.475922,65.945869 181.323746,65.947487 178.171585,65.941032 
	C178.015884,65.940712 177.768372,65.918655 177.718643,65.824684 
	C177.100296,64.656143 178.291336,65.311913 178.928467,65.008781 
z"/>
<path fill="#000000" opacity="1.000000" stroke="none" 
	d="
M119.041946,96.634552 
	C118.884193,97.056862 118.698769,97.043541 118.235802,97.056267 
	C117.334740,93.048996 119.393196,89.307907 119.457550,84.955864 
	C119.675781,84.585976 119.639915,84.540916 119.614075,84.509277 
	C121.076744,88.466988 118.780380,92.271004 119.041946,96.634552 
z"/>
<path fill="#000000" opacity="1.000000" stroke="none" 
	d="
M143.963562,26.338661 
	C145.736282,29.121471 146.001007,32.647900 146.036438,36.661259 
	C144.263794,33.878456 143.998978,30.351992 143.963562,26.338661 
z"/>
<path fill="#000000" opacity="1.000000" stroke="none" 
	d="
M136.008804,88.935379 
	C136.003204,87.432190 136.003204,86.307961 136.003204,85.183731 
	C136.356644,88.142540 138.637756,90.811111 137.600967,94.568810 
	C136.942841,92.389183 136.478622,90.851761 136.008804,88.935379 
z"/>
<path fill="#000000" opacity="1.000000" stroke="none" 
	d="
M166.296417,35.895561 
	C165.573624,32.391430 166.957153,28.913658 167.703522,25.104454 
	C168.426346,28.608570 167.042953,32.086395 166.296417,35.895561 
z"/>
<path fill="#000000" opacity="1.000000" stroke="none" 
	d="
M113.296417,27.895557 
	C112.573624,24.391426 113.957153,20.913660 114.703537,17.104456 
	C115.426353,20.608570 114.042938,24.086393 113.296417,27.895557 
z"/>
<path fill="#000000" opacity="1.000000" stroke="none" 
	d="
M111.296417,38.895557 
	C110.573624,35.391426 111.957153,31.913660 112.703537,28.104456 
	C113.426353,31.608568 112.042938,35.086391 111.296417,38.895557 
z"/>
<path fill="#000000" opacity="1.000000" stroke="none" 
	d="
M198.963562,28.338661 
	C200.736282,31.121471 201.001007,34.647900 201.036438,38.661259 
	C199.263794,35.878456 198.998978,32.351990 198.963562,28.338661 
z"/>
<path fill="#000000" opacity="1.000000" stroke="none" 
	d="
M141.963562,15.338661 
	C143.736282,18.121471 144.001007,21.647898 144.036438,25.661257 
	C142.263794,22.878456 141.998978,19.351990 141.963562,15.338661 
z"/>
<path fill="#000000" opacity="1.000000" stroke="none" 
	d="
M151.963562,70.338654 
	C153.736282,73.121475 154.001007,76.647903 154.036438,80.661255 
	C152.263794,77.878448 151.998978,74.351982 151.963562,70.338654 
z"/>
<path fill="#000000" opacity="1.000000" stroke="none" 
	d="
M168.296417,24.895557 
	C167.573639,21.391428 168.957138,17.913658 169.703537,14.104457 
	C170.426346,17.608568 169.042953,21.086393 168.296417,24.895557 
z"/>
<path fill="#000000" opacity="1.000000" stroke="none" 
	d="
M131.079269,66.008194 
	C131.760330,66.086456 132.084183,66.131943 132.386566,66.238358 
	C132.777817,66.376045 132.739136,66.798630 132.281464,66.808502 
	C129.347992,66.871765 126.412468,66.840782 123.422127,66.002510 
	C125.852249,66.002510 128.282379,66.002510 131.079269,66.008194 
z"/>
<path fill="#000000" opacity="1.000000" stroke="none" 
	d="
M158.296417,79.895554 
	C157.573639,76.391434 158.957138,72.913658 159.703537,69.104462 
	C160.426346,72.608566 159.042953,76.086395 158.296417,79.895554 
z"/>
<path fill="#000000" opacity="1.000000" stroke="none" 
	d="
M146.963562,42.338661 
	C148.736282,45.121471 149.001007,48.647900 149.036438,52.661259 
	C147.263794,49.878456 146.998978,46.351990 146.963562,42.338661 
z"/>
<path fill="#000000" opacity="1.000000" stroke="none" 
	d="
M130.732330,54.895130 
	C133.200546,57.187572 132.209229,60.657616 132.785049,63.772163 
	C131.129715,61.143246 130.875534,58.226337 130.732330,54.895130 
z"/>
<path fill="#000000" opacity="1.000000" stroke="none" 
	d="
M203.963562,55.338661 
	C205.736282,58.121475 206.001007,61.647903 206.036438,65.661255 
	C204.263794,62.878452 203.998978,59.351986 203.963562,55.338661 
z"/>
<path fill="#000000" opacity="1.000000" stroke="none" 
	d="
M149.963562,59.338661 
	C151.736282,62.121475 152.001007,65.647903 152.036438,69.661255 
	C150.263794,66.878456 149.998978,63.351986 149.963562,59.338661 
z"/>
<path fill="#000000" opacity="1.000000" stroke="none" 
	d="
M163.296417,51.895561 
	C162.573639,48.391430 163.957138,44.913658 164.703537,41.104454 
	C165.426346,44.608570 164.042969,48.086399 163.296417,51.895561 
z"/>
<path fill="#000000" opacity="1.000000" stroke="none" 
	d="
M108.296417,55.895557 
	C107.573624,52.391430 108.957153,48.913662 109.703537,45.104458 
	C110.426353,48.608570 109.042938,52.086391 108.296417,55.895557 
z"/>
<path fill="#000000" opacity="1.000000" stroke="none" 
	d="
M201.963562,44.338661 
	C203.736282,47.121471 204.001007,50.647900 204.036438,54.661259 
	C202.263794,51.878456 201.998978,48.351990 201.963562,44.338661 
z"/>
<path fill="#000000" opacity="1.000000" stroke="none" 
	d="
M130.586029,54.502842 
	C129.640686,52.832481 130.185440,50.964802 129.728073,48.869545 
	C129.634277,48.351303 129.718475,48.166626 129.669678,48.257889 
	C132.271820,49.619789 130.516129,51.905647 130.723022,54.080494 
	C130.550140,54.540054 130.583755,54.497437 130.586029,54.502842 
z"/>
<path fill="#000000" opacity="1.000000" stroke="none" 
	d="
M110.298538,44.892303 
	C110.073807,43.169430 110.208107,41.241238 110.701454,39.107693 
	C110.926193,40.830555 110.791885,42.758770 110.298538,44.892303 
z"/>
<path fill="#000000" opacity="1.000000" stroke="none" 
	d="
M185.269836,49.124176 
	C182.708878,48.851711 184.584885,46.570000 183.731277,44.875362 
	C186.290512,45.148884 184.414993,47.429634 185.269836,49.124176 
z"/>
<path fill="#000000" opacity="1.000000" stroke="none" 
	d="
M183.583908,44.504227 
	C182.643295,42.735756 183.138382,40.803055 182.864716,38.618690 
	C185.357101,39.597317 183.478180,41.858685 183.721390,44.084549 
	C183.548676,44.540077 183.582458,44.497078 183.583908,44.504227 
z"/>
<path fill="#000000" opacity="1.000000" stroke="none" 
	d="
M173.559601,85.481964 
	C174.232941,87.158630 174.048904,88.898064 173.262909,90.721809 
	C173.262909,89.216873 173.262909,87.711937 173.416718,85.839645 
	C173.570526,85.472282 173.577026,85.504272 173.559601,85.481964 
z"/>
<path fill="#000000" opacity="1.000000" stroke="none" 
	d="
M185.669678,56.257889 
	C188.341904,57.211987 186.371124,59.307461 187.314514,61.216656 
	C185.279160,59.813416 186.395370,58.288033 185.727142,56.846375 
	C185.634277,56.351303 185.718475,56.166626 185.669678,56.257889 
z"/>
<path fill="#000000" opacity="1.000000" stroke="none" 
	d="
M106.298538,67.892303 
	C106.073799,66.169434 106.208099,64.241241 106.701447,62.107697 
	C106.926193,63.830555 106.791885,65.758766 106.298538,67.892303 
z"/>
<path fill="#000000" opacity="1.000000" stroke="none" 
	d="
M181.993134,38.014610 
	C182.028534,36.483791 182.028534,34.915405 182.028534,33.347023 
	C182.336258,33.330822 182.643982,33.314621 182.951706,33.298424 
	C182.951706,34.687283 182.951706,36.076145 182.852264,37.880119 
	C182.752823,38.295227 182.823715,38.213818 182.854446,38.182205 
	C182.720856,38.102333 182.556519,38.054077 182.138611,37.954758 
	C181.885040,37.903698 181.957718,37.977043 181.993134,38.014610 
z"/>
<path fill="#000000" opacity="1.000000" stroke="none" 
	d="
M129.418365,41.494728 
	C130.360855,43.484730 129.951065,45.585407 129.709381,48.097149 
	C129.536682,48.533833 129.572403,48.489609 129.561249,48.512794 
	C128.670395,46.529961 129.040543,44.434456 129.280396,41.910500 
	C129.452850,41.460369 129.418823,41.503708 129.418365,41.494728 
z"/>
<path fill="#000000" opacity="1.000000" stroke="none" 
	d="
M157.298538,85.892303 
	C157.073792,84.169434 157.208099,82.241234 157.701462,80.107697 
	C157.926208,81.830559 157.791901,83.758766 157.298538,85.892303 
z"/>
<path fill="#000000" opacity="1.000000" stroke="none" 
	d="
M153.963593,81.320755 
	C155.888168,82.369949 154.616043,84.482376 155.036407,86.679199 
	C153.111801,85.630013 154.383972,83.517555 153.963593,81.320755 
z"/>
<path fill="#000000" opacity="1.000000" stroke="none" 
	d="
M185.418365,49.494728 
	C186.360855,51.484730 185.951065,53.585407 185.709381,56.097149 
	C185.536682,56.533833 185.572403,56.489609 185.561249,56.512794 
	C184.670395,54.529961 185.040543,52.434456 185.280396,49.910500 
	C185.452850,49.460369 185.418823,49.503708 185.418365,49.494728 
z"/>
<path fill="#000000" opacity="1.000000" stroke="none" 
	d="
M107.298538,61.892303 
	C107.073799,60.169430 107.208107,58.241238 107.701454,56.107693 
	C107.926193,57.830555 107.791893,59.758770 107.298538,61.892303 
z"/>
<path fill="#000000" opacity="1.000000" stroke="none" 
	d="
M148.963593,53.320755 
	C150.888168,54.369949 149.616043,56.482372 150.036407,58.679192 
	C148.111816,57.630016 149.383957,55.517559 148.963593,53.320755 
z"/>
<path fill="#000000" opacity="1.000000" stroke="none" 
	d="
M200.963226,39.309757 
	C202.794662,39.996265 201.670151,41.819683 202.036774,43.690163 
	C200.205368,43.003654 201.329865,41.180206 200.963226,39.309757 
z"/>
<path fill="#000000" opacity="1.000000" stroke="none" 
	d="
M165.290955,40.903000 
	C165.078156,39.494694 165.217514,37.892704 165.709045,36.097008 
	C165.921814,37.505302 165.782455,39.107307 165.290955,40.903000 
z"/>
<path fill="#000000" opacity="1.000000" stroke="none" 
	d="
M197.963226,23.309759 
	C199.794678,23.996265 198.670135,25.819689 199.036774,27.690163 
	C197.205368,27.003653 198.329849,25.180212 197.963226,23.309759 
z"/>
<path fill="#000000" opacity="1.000000" stroke="none" 
	d="
M145.963226,37.309757 
	C147.794662,37.996265 146.670151,39.819683 147.036774,41.690163 
	C145.205368,41.003654 146.329865,39.180206 145.963226,37.309757 
z"/>
<path fill="#000000" opacity="1.000000" stroke="none" 
	d="
M390.085602,54.705185 
	C389.968506,58.732437 392.068420,61.827637 393.087158,65.622368 
	C393.065796,66.313332 392.964935,66.626640 392.864075,66.939949 
	C390.980988,65.656395 388.234924,55.764828 389.210388,53.739830 
	C389.244537,53.668934 389.493652,53.609848 389.515137,53.639042 
	C389.695160,53.883728 389.845367,54.150372 390.085602,54.705185 
z"/>
<path fill="#000000" opacity="1.000000" stroke="none" 
	d="
M366.083679,103.971642 
	C363.630341,103.945900 361.057861,104.342239 358.661194,103.861732 
	C356.260284,103.380386 353.874084,102.924011 351.432617,102.524513 
	C356.340881,101.527878 361.102478,103.248131 365.954315,103.738388 
	C365.968201,104.095108 366.041626,104.009315 366.083679,103.971642 
z"/>
<path fill="#000000" opacity="1.000000" stroke="none" 
	d="
M352.737946,89.097656 
	C351.689087,93.145607 350.470612,96.908073 349.252106,100.670532 
	C349.368408,96.387115 350.099670,92.315033 352.737946,89.097656 
z"/>
<path fill="#000000" opacity="1.000000" stroke="none" 
	d="
M398.614197,83.263062 
	C399.648590,85.819359 400.339172,88.523750 401.098206,91.614685 
	C398.614441,89.672890 397.915619,86.719635 398.614197,83.263062 
z"/>
<path fill="#000000" opacity="1.000000" stroke="none" 
	d="
M380.031036,85.267296 
	C378.985474,82.775879 378.115601,80.582222 378.253113,78.127296 
	C379.584198,80.388840 380.873138,82.645004 380.920746,85.347244 
	C380.923309,85.491165 380.796875,85.761673 380.736328,85.760010 
	C380.520782,85.754074 380.307800,85.655869 380.031036,85.267296 
z"/>
<path fill="#000000" opacity="1.000000" stroke="none" 
	d="
M378.016479,36.339108 
	C378.501740,35.256191 378.959167,34.522724 379.416595,33.789253 
	C379.627960,33.890526 379.839325,33.991795 380.050690,34.093063 
	C379.280304,36.417725 378.509918,38.742386 377.682037,41.240429 
	C376.117462,39.396198 377.789948,38.122169 378.016479,36.339108 
z"/>
<path fill="#000000" opacity="1.000000" stroke="none" 
	d="
M362.042297,64.070221 
	C362.013123,65.634216 361.238403,66.419884 360.044556,67.643684 
	C360.445526,64.846420 360.906494,62.643906 362.432281,60.731224 
	C363.579468,61.945301 362.538513,62.797180 362.042297,64.070221 
z"/>
<path fill="#000000" opacity="1.000000" stroke="none" 
	d="
M383.735107,97.832840 
	C385.636566,98.729156 386.194977,100.565872 385.863617,102.973083 
	C384.448517,101.532661 383.894592,99.947762 383.735107,97.832840 
z"/>
<path fill="#000000" opacity="1.000000" stroke="none" 
	d="
M383.592529,97.489868 
	C383.223572,95.356049 381.659668,93.448959 382.257080,90.675949 
	C383.603851,92.765541 384.336578,94.559212 383.721924,97.101746 
	C383.554016,97.530296 383.587433,97.489265 383.592529,97.489868 
z"/>
<path fill="#000000" opacity="1.000000" stroke="none" 
	d="
M375.077271,72.829880 
	C375.558289,71.660698 376.004120,70.809639 376.493500,69.875450 
	C377.671448,71.615692 376.646393,72.860695 375.649323,74.102150 
	C375.613373,74.146912 375.360718,74.110703 375.339325,74.058678 
	C375.218262,73.764160 375.136993,73.453293 375.077271,72.829880 
z"/>
<path fill="#000000" opacity="1.000000" stroke="none" 
	d="
M364.544373,56.138378 
	C364.173706,55.079571 364.096710,53.942200 363.998627,52.493916 
	C365.811920,53.624126 365.772614,54.758545 364.544373,56.138378 
z"/>
<path fill="#000000" opacity="1.000000" stroke="none" 
	d="
M355.064453,79.935806 
	C355.558624,78.969528 356.025879,78.312164 356.514862,77.624245 
	C357.669556,79.199707 356.280243,80.076607 355.669373,81.142624 
	C355.639954,81.193939 355.368622,81.190506 355.352325,81.152122 
	C355.227509,80.858086 355.138000,80.549072 355.064453,79.935806 
z"/>
<path fill="#000000" opacity="1.000000" stroke="none" 
	d="
M358.281067,36.111778 
	C357.673737,34.903530 356.365417,34.115124 357.446198,32.710262 
	C358.273804,33.815220 359.713104,34.647659 358.281067,36.111778 
z"/>
<path fill="#000000" opacity="1.000000" stroke="none" 
	d="
M98.672943,23.076700 
	C98.933563,25.972790 96.566231,24.935080 95.007950,24.957523 
	C88.228325,25.055178 81.446495,24.999454 74.968033,24.999454 
	C74.968033,31.070456 75.245399,36.810097 74.836823,42.500481 
	C74.663979,44.907749 75.281868,45.066784 77.193230,45.026020 
	C81.503105,44.934105 85.818764,44.919071 90.126732,45.049290 
	C91.426941,45.088593 93.205750,44.157879 94.009109,46.656708 
	C87.259720,44.722282 80.342751,46.656254 73.008759,45.944584 
	C73.008759,39.960789 73.097450,33.333179 72.967056,26.709887 
	C72.911430,23.884274 74.599991,23.982796 76.524216,23.992342 
	C82.181313,24.020412 87.839172,24.043360 93.495544,23.972748 
	C95.099968,23.952719 96.843498,24.510649 98.672943,23.076700 
z"/>
<path fill="#000000" opacity="1.000000" stroke="none" 
	d="
M98.824432,84.828659 
	C89.926056,82.533424 81.780350,86.289230 73.469788,85.142426 
	C73.469788,78.177925 73.469788,70.732117 73.469788,63.286312 
	C73.979942,63.276180 74.490089,63.266052 75.000244,63.255924 
	C75.000244,68.543671 75.246948,73.846786 74.918648,79.114075 
	C74.675758,83.011032 75.852028,84.207314 79.832649,84.114197 
	C86.089760,83.967827 92.259811,81.996841 98.823730,83.582520 
	C99.170433,84.281204 99.259300,84.635574 98.824432,84.828659 
z"/>
<path fill="#000000" opacity="1.000000" stroke="none" 
	d="
M93.964409,47.361843 
	C95.997765,51.322830 95.170021,55.768421 94.058594,60.643360 
	C87.402840,60.917000 80.735931,60.673958 74.100357,61.804459 
	C78.725471,59.132534 83.750107,59.839615 88.577042,60.120663 
	C92.898376,60.372269 93.994049,58.381084 93.990570,54.770294 
	C93.988335,52.454502 93.988731,50.138710 93.964409,47.361843 
z"/>
<path fill="#000000" opacity="1.000000" stroke="none" 
	d="
M98.886238,84.111855 
	C101.098244,88.118790 99.436340,92.414688 100.021027,96.647102 
	C99.611862,96.655991 99.202698,96.664879 98.793533,96.673767 
	C98.793533,92.905663 98.793533,89.137550 98.547112,85.018402 
	C98.430771,84.543869 98.560844,84.420364 98.886238,84.111855 
z"/>
<path fill="#000000" opacity="1.000000" stroke="none" 
	d="
M85.486237,99.583023 
	C89.214493,98.353165 92.969673,99.300789 96.730003,99.902931 
	C93.302742,99.902931 89.875473,99.902931 85.949478,99.726013 
	C85.450737,99.549095 85.495148,99.583115 85.486237,99.583023 
z"/>
<path fill="#000000" opacity="1.000000" stroke="none" 
	d="
M252.535980,89.153893 
	C252.766937,79.667679 251.264771,70.459442 253.391907,61.268280 
	C253.391907,71.880348 253.391907,82.492416 253.391907,93.182877 
	C252.553162,93.336624 252.065033,92.684364 252.099960,91.790352 
	C252.130539,91.007553 252.509186,90.238350 252.535980,89.153893 
z"/>
<path fill="#000000" opacity="1.000000" stroke="none" 
	d="
M252.483978,33.450703 
	C252.315659,31.045950 251.905991,28.985952 252.167282,27.014900 
	C252.330627,25.782656 252.130646,23.839729 254.760437,23.929890 
	C261.351257,24.155855 267.955048,24.004513 274.572571,25.000055 
	C269.612946,25.000055 264.634369,25.268114 259.699341,24.919638 
	C255.345108,24.612171 253.407578,25.704319 253.904434,30.496981 
	C254.356232,34.855034 254.000076,39.296844 253.284454,43.732117 
	C251.604126,40.534775 251.709244,37.214890 252.483978,33.450703 
z"/>
<path fill="#000000" opacity="1.000000" stroke="none" 
	d="
M262.593323,60.048073 
	C259.202820,60.016407 256.254822,60.016407 253.306793,60.016407 
	C258.789246,59.267345 264.309631,58.102215 269.680298,60.352814 
	C266.237030,61.122704 266.237030,61.122704 262.593323,60.048073 
z"/>
<path fill="#000000" opacity="1.000000" stroke="none" 
	d="
M255.766754,45.001526 
	C260.605316,45.000465 265.035583,45.000465 269.465820,45.000465 
	C269.469727,45.217018 269.473633,45.433567 269.477539,45.650120 
	C264.146973,45.650120 258.816437,45.650120 253.482727,45.646423 
	C253.474899,45.544941 253.427444,45.405914 253.474030,45.357601 
	C253.584717,45.242817 253.732986,45.109554 253.878494,45.092991 
	C254.368881,45.037163 254.864700,45.028992 255.766754,45.001526 
z"/>
<path fill="#000000" opacity="1.000000" stroke="none" 
	d="
M234.433777,94.470947 
	C239.903885,93.876053 245.402039,93.205688 250.743362,95.580589 
	C245.624268,94.557510 240.443848,95.254150 234.878235,94.614487 
	C234.450409,94.437141 234.458725,94.453445 234.433777,94.470947 
z"/>
<path fill="#000000" opacity="1.000000" stroke="none" 
	d="
M272.996338,49.968521 
	C272.998901,52.946350 272.998901,55.554451 272.998901,58.162556 
	C272.544617,58.179359 272.090302,58.196159 271.636017,58.212963 
	C272.213287,54.873024 270.847717,51.574162 272.326630,48.308441 
	C272.537354,47.843117 272.809875,49.102383 272.996338,49.968521 
z"/>
<path fill="#000000" opacity="1.000000" stroke="none" 
	d="
M47.562675,63.962296 
	C43.443729,67.111031 39.001347,65.790527 34.792484,65.964134 
	C28.470306,66.224907 27.921457,66.566933 28.019733,72.619453 
	C28.189291,83.062325 27.521408,93.514275 28.376196,103.950562 
	C28.484285,105.270256 28.312677,106.594894 26.278946,107.025658 
	C27.222256,105.356224 27.004818,103.355118 27.003397,101.386681 
	C26.995983,91.122520 27.257702,80.848694 26.872686,70.598999 
	C26.720127,66.537659 28.625313,65.528152 31.794168,65.026337 
	C31.956240,65.000664 32.124683,65.016434 32.290066,65.010284 
	C36.700821,64.846291 42.324123,66.621216 45.125748,63.449131 
	C47.839035,60.377056 45.576321,54.859592 46.331516,50.008781 
	C49.307961,54.037796 47.640011,58.906384 47.562675,63.962296 
z"/>
<path fill="#000000" opacity="1.000000" stroke="none" 
	d="
M46.528770,49.562561 
	C40.721394,50.968212 34.644741,48.877186 28.818804,50.844231 
	C27.209986,51.387428 27.021772,49.880379 27.020113,48.667389 
	C27.010828,41.884602 27.015646,35.101795 27.931286,28.311825 
	C27.931286,35.360645 27.931286,42.409470 27.931286,49.348549 
	C34.157452,48.798706 39.920177,48.896370 46.113106,49.387146 
	C46.540302,49.569618 46.505783,49.579956 46.528770,49.562561 
z"/>
</svg>